<svg width="11" height="11" viewBox="0 0 11 11" fill="none" xmlns="http://www.w3.org/2000/svg">
<path fill-rule="evenodd" clip-rule="evenodd" d="M4.64824 1.04833e-08C3.90697 6.31622e-05 3.17646 0.177394 2.51766 0.517198C1.85887 0.857002 1.29088 1.34943 0.861098 1.95339C0.431315 2.55734 0.152195 3.25533 0.0470252 3.9891C-0.0581442 4.72287 0.0136868 5.47115 0.256525 6.17152C0.499364 6.87188 0.906168 7.50402 1.443 8.01519C1.97983 8.52636 2.63112 8.90174 3.34253 9.11001C4.05394 9.31828 4.80484 9.3534 5.53258 9.21245C6.26033 9.0715 6.94381 8.75855 7.52602 8.29973L9.52329 10.297C9.62643 10.3966 9.76458 10.4517 9.90798 10.4505C10.0514 10.4493 10.1885 10.3917 10.2899 10.2903C10.3913 10.1889 10.4489 10.0518 10.4501 9.90837C10.4513 9.76498 10.3962 9.62683 10.2966 9.52368L8.29933 7.52641C8.83966 6.84094 9.1761 6.01719 9.27013 5.14944C9.36416 4.28169 9.21199 3.405 8.83104 2.61969C8.45008 1.83439 7.85573 1.1722 7.11601 0.708906C6.37628 0.245615 5.52107 -5.85965e-05 4.64824 1.04833e-08ZM1.0934 4.64863C1.0934 3.70583 1.46793 2.80165 2.13459 2.13498C2.80125 1.46832 3.70544 1.0938 4.64824 1.0938C5.59104 1.0938 6.49523 1.46832 7.16189 2.13498C7.82855 2.80165 8.20308 3.70583 8.20308 4.64863C8.20308 5.59143 7.82855 6.49562 7.16189 7.16228C6.49523 7.82894 5.59104 8.20347 4.64824 8.20347C3.70544 8.20347 2.80125 7.82894 2.13459 7.16228C1.46793 6.49562 1.0934 5.59143 1.0934 4.64863Z" fill="#FFD9D9"/>
</svg>
